<?xml version="1.0" standalone="no"?>
<!DOCTYPE svg PUBLIC "-//W3C//DTD SVG 20010904//EN"
 "http://www.w3.org/TR/2001/REC-SVG-20010904/DTD/svg10.dtd">
<svg version="1.0" xmlns="http://www.w3.org/2000/svg"
 width="200.000000pt" height="200.000000pt" viewBox="0 0 200.000000 200.000000"
 preserveAspectRatio="xMidYMid meet">
<metadata>
Created by potrace 1.14, written by Peter Selinger 2001-2017
</metadata>
<g transform="translate(0.000000,200.000000) scale(0.100000,-0.100000)"
fill="#000000" stroke="none">
<path d="M572 1802 c-31 -10 -82 -61 -99 -99 -9 -22 -20 -33 -34 -33 -11 0
-34 -13 -50 -29 -41 -42 -41 -101 1 -143 17 -16 30 -37 30 -46 -1 -23 -35 -98
-60 -129 -25 -32 -18 -43 11 -17 31 28 61 92 63 134 1 30 4 36 19 32 30 -8 75
18 92 54 21 44 13 83 -26 117 -23 21 -29 34 -25 51 7 30 65 86 88 86 10 0 18
7 18 15 0 8 -1 15 -2 14 -2 -1 -13 -4 -26 -7z"/>
<path d="M1258 1783 c-43 -14 -78 -30 -78 -34 0 -13 10 -11 71 10 30 10 71 21
93 25 38 7 42 17 8 22 -9 2 -52 -9 -94 -23z"/>
<path d="M800 1748 c16 -15 143 -58 173 -58 40 0 11 17 -66 39 -131 37 -124
36 -107 19z"/>
<path d="M1519 1685 c-4 -3 0 -27 6 -53 7 -26 15 -67 19 -91 6 -46 12 -58 22
-48 3 3 1 39 -6 79 -12 73 -31 124 -41 113z"/>
<path d="M644 1611 c-46 -28 -62 -85 -63 -223 -1 -74 -2 -77 -28 -90 -22 -10
-29 -21 -31 -49 -3 -34 -9 -41 -98 -99 -180 -117 -180 -186 0 -301 83 -53 95
-64 94 -88 -1 -36 8 -50 38 -61 21 -8 24 -16 24 -57 3 -280 51 -320 259 -215
149 76 164 77 303 9 137 -66 158 -72 203 -53 47 20 63 60 70 172 12 196 12
195 157 291 182 120 185 184 12 298 -156 102 -159 107 -168 283 -12 217 -59
241 -270 138 -142 -70 -152 -70 -300 2 -125 62 -160 69 -202 43z m196 -63
c144 -72 177 -72 320 -1 58 29 119 54 135 56 68 9 92 -34 100 -184 10 -177 14
-184 173 -288 163 -108 162 -156 -6 -265 -152 -99 -156 -107 -167 -298 -7
-135 -36 -183 -105 -172 -14 3 -72 28 -130 57 -144 71 -177 71 -320 -1 -148
-74 -187 -75 -217 -5 -8 20 -17 79 -19 132 -3 53 -6 101 -9 107 -2 7 3 20 10
31 25 36 1 83 -42 83 -13 0 -68 29 -123 65 -120 77 -144 113 -118 169 9 18 34
46 55 60 109 75 163 106 186 106 41 0 70 56 42 80 -8 6 -12 17 -10 23 2 7 6
58 9 115 8 150 35 197 106 185 14 -2 72 -27 130 -55z"/>
<path d="M748 1443 c-32 -8 -33 -34 -12 -243 5 -47 -13 -63 -113 -102 -121
-47 -155 -84 -120 -131 6 -10 55 -36 107 -58 129 -55 132 -58 125 -133 -3 -33
-8 -63 -11 -67 -7 -12 -7 -103 0 -127 16 -48 67 -37 160 37 112 88 119 88 222
8 88 -69 108 -79 139 -71 35 9 40 39 26 166 -15 132 -16 132 102 179 99 39
124 55 132 80 15 47 -14 73 -143 123 -85 33 -106 57 -98 113 3 21 9 74 12 118
6 73 5 82 -14 99 -29 26 -56 16 -140 -48 -119 -92 -126 -93 -212 -25 -73 58
-121 89 -134 88 -6 -1 -19 -3 -28 -6z m57 -31 c17 -11 61 -42 98 -70 43 -33
78 -52 95 -52 28 0 81 31 140 81 53 47 91 63 109 47 16 -13 16 -27 -3 -198 -8
-76 11 -98 121 -140 87 -34 125 -60 125 -85 0 -18 -50 -47 -128 -75 -35 -13
-77 -36 -94 -52 -29 -27 -30 -31 -24 -86 4 -31 9 -89 13 -128 5 -67 4 -71 -16
-77 -15 -3 -36 6 -69 29 -182 131 -176 130 -292 36 -69 -56 -119 -79 -132 -60
-8 12 -6 69 8 199 5 49 3 58 -17 82 -13 14 -60 41 -105 59 -44 18 -91 40 -104
49 -22 14 -23 19 -13 41 8 19 35 35 109 64 136 55 139 60 123 207 -10 95 -10
118 0 131 17 20 19 20 56 -2z"/>
<path d="M909 1177 c-24 -13 -57 -43 -74 -66 -26 -37 -30 -51 -30 -111 0 -60
4 -74 30 -111 89 -126 270 -115 343 21 68 127 -33 290 -178 290 -30 0 -63 -8
-91 -23z"/>
<path d="M1641 1293 c11 -17 107 -99 135 -116 9 -5 14 -3 14 5 0 7 -21 28 -46
47 -24 19 -55 44 -67 57 -27 29 -53 33 -36 7z"/>
<path d="M150 1133 c-35 -40 -60 -91 -60 -123 0 -34 15 -22 27 23 7 23 28 61
48 84 19 23 31 44 26 47 -5 3 -24 -11 -41 -31z"/>
<path d="M1890 993 c0 -31 -29 -84 -68 -125 -35 -38 -19 -49 18 -13 51 49 93
165 60 165 -5 0 -10 -12 -10 -27z"/>
<path d="M201 824 c1 -11 152 -135 157 -129 7 7 -31 50 -80 88 -52 41 -78 54
-77 41z"/>
<path d="M1614 677 c-33 -49 -41 -68 -49 -117 -9 -60 7 -42 30 32 10 31 26 65
36 74 19 17 26 44 12 44 -5 0 -18 -15 -29 -33z"/>
<path d="M372 654 c-30 -21 -29 -59 3 -80 23 -15 27 -15 50 0 32 21 33 59 3
80 -12 9 -25 16 -28 16 -3 0 -16 -7 -28 -16z"/>
<path d="M433 473 c10 -80 28 -153 38 -153 6 0 7 14 4 33 -12 62 -14 72 -21
120 -9 63 -29 63 -21 0z"/>
<path d="M1510 318 c0 -25 -46 -78 -82 -94 -33 -15 -51 -34 -31 -34 19 0 90
43 105 64 22 31 34 76 19 76 -6 0 -11 -5 -11 -12z"/>
<path d="M1000 302 c0 -5 18 -12 41 -16 23 -4 66 -15 97 -26 65 -23 62 -23 62
-11 0 5 -24 19 -54 30 -65 24 -146 37 -146 23z"/>
<path d="M755 244 c-22 -8 -61 -20 -87 -25 -60 -13 -64 -32 -5 -23 55 9 147
43 147 55 0 12 -6 11 -55 -7z"/>
</g>
</svg>
